<?xml version="1.0" standalone="no"?>
<!DOCTYPE svg PUBLIC "-//W3C//DTD SVG 1.1//EN" "http://www.w3.org/Graphics/SVG/1.1/DTD/svg11.dtd" >
<!--
2013-9-30: Created.
-->
<svg>
<metadata>
Created by iconfont
</metadata>
<defs>

<font id="ico-bgy" horiz-adv-x="1024" >
  <font-face
    font-family="ico-bgy"
    font-weight="500"
    font-stretch="normal"
    units-per-em="1024"
    ascent="896"
    descent="-128"
  />
    <missing-glyph />
    
    <glyph glyph-name="x" unicode="x" horiz-adv-x="1001"
d="M281 543q-27 -1 -53 -1h-83q-18 0 -36.5 -6t-32.5 -18.5t-23 -32t-9 -45.5v-76h912v41q0 16 -0.5 30t-0.5 18q0 13 -5 29t-17 29.5t-31.5 22.5t-49.5 9h-133v-97h-438v97zM955 310v-52q0 -23 0.5 -52t0.5 -58t-10.5 -47.5t-26 -30t-33 -16t-31.5 -4.5q-14 -1 -29.5 -0.5
t-29.5 0.5h-32l-45 128h-439l-44 -128h-29h-34q-20 0 -45 1q-25 0 -41 9.5t-25.5 23t-13.5 29.5t-4 30v167h911zM163 247q-12 0 -21 -8.5t-9 -21.5t9 -21.5t21 -8.5q13 0 22 8.5t9 21.5t-9 21.5t-22 8.5zM316 123q-8 -26 -14 -48q-5 -19 -10.5 -37t-7.5 -25t-3 -15t1 -14.5
t9.5 -10.5t21.5 -4h37h67h81h80h64h36q23 0 34 12t2 38q-5 13 -9.5 30.5t-9.5 34.5q-5 19 -11 39h-368zM336 498v228q0 11 2.5 23t10 21.5t20.5 15.5t34 6h188q31 0 51.5 -14.5t20.5 -52.5v-227h-327z" />
    

    
    <glyph glyph-name="delete" unicode="&#59651;" d="M962.098062 700.529778l1.024-2.730667h-870.4l1.080889 2.730667a49.550222 49.550222 0 0 0 15.075556 96.369778 46.933333 46.933333 0 0 0 20.650666-4.892445L157.177173 862.947556h225.678223A32.654222 32.654222 0 0 0 415.111396 896h193.422222a32.654222 32.654222 0 0 0 32.256-33.052444H898.666951l27.704889-70.940445a46.592 46.592 0 0 0 20.650667 4.892445 49.550222 49.550222 0 0 0 15.075555-96.369778z m-31.232-35.726222a66.104889 66.104889 0 0 0 0-132.152889H898.666951V-128H124.978062V532.650667h-32.256a66.104889 66.104889 0 0 0 0 132.152889h838.144zM672.988729 36.977777999999944a64.512 64.512 0 1 1 128.967111 0V433.379556a64.512 64.512 0 1 1-128.967111 0V36.977777999999944z m-225.621333 0a64.455111 64.455111 0 1 1 128.910222 0V433.379556a64.455111 64.455111 0 1 1-128.910222 0V36.977777999999944z m-225.678223 0a64.512 64.512 0 1 1 128.967111 0V433.379556a64.512 64.512 0 1 1-128.967111 0V36.977777999999944z"  horiz-adv-x="1024" />

    
    <glyph glyph-name="prompt" unicode="&#58892;" d="M0-128V691.2h819.2v-819.2H0zM768 628.189867H51.2v-693.179734h716.8V628.189867zM1092.266667-128V896H0v-68.266667L1041.066667 832.989867 1024-128h68.266667z"  horiz-adv-x="1092" />

    
    <glyph glyph-name="tri-fold" unicode="&#59665;" d="M837.487952 331.582442l-594.468533-448.09542C206.406456-141.07909500000005 157.35296-128.32361100000003 157.35296-56.98738700000001V825.6605930000001C157.35296 897.784193 203.099479 907.705125 243.019419 885.501135l594.468533-448.095421a62.990043 62.990043 0 0 0 0-105.823272zM228.216759-27.22459200000003l560.060222 411.71867L228.216759 796.212748v-823.43734z"  horiz-adv-x="1024" />

    
    <glyph glyph-name="icon-edit" unicode="&#59649;" d="M1004.934095 649.069714l-117.418666-110.592-227.961905 224.304762L768.24381 877.275429a55.53981 55.53981 0 0 0 88.015238-7.850667l147.065904-139.556572a51.004952 51.004952 0 0 0 1.609143-80.798476z m-629.028571-623.420952l-243.321905 214.552381 480.597333 484.742095 241.322667-230.741333z m-183.100953-108.690286l-141.409523 120.588191 49.200762 163.742476 243.126857-205.921524z m-192.658285-44.324571l29.647238 103.375238 92.306286-86.25981z"  horiz-adv-x="1025" />

    
    <glyph glyph-name="square" unicode="&#59654;" d="M225.57465257 670.42534743h572.85069486v-572.85069486H225.57465257z"  horiz-adv-x="1024" />

    
    <glyph glyph-name="tri-open" unicode="&#59655;" d="M882.78857422 754.78857422v-741.57714844H141.21142578z"  horiz-adv-x="1024" />

    
    <glyph glyph-name="authorize" unicode="&#59653;" d="M999.097295 505.465905a11.556571 11.556571 0 0 0-16.920381 0l-103.814095 109.031619a13.165714 13.165714 0 0 0-3.462095 8.874666 12.921905 12.921905 0 0 0 3.462095 8.874667 82.505143 82.505143 0 0 0 120.734476 0 92.94019 92.94019 0 0 0 0-126.780952z m-55.05219-57.782857l-9.362286-9.752381a76.8 76.8 0 0 0 6.582857-43.885715 74.361905 74.361905 0 0 0-19.504762-40.569904l-159.50019-167.692191a34.133333 34.133333 0 0 0-49.639619 0l-8.972191 9.411048-218.648381-229.814857a20.772571 20.772571 0 0 0-30.427428 0l-90.112 94.646857a23.454476 23.454476 0 0 0 0 31.987809l458.995809 482.499048a20.772571 20.772571 0 0 0 30.427429 0l90.063238-94.695619a23.356952 23.356952 0 0 0 0.097524-32.134095z m-564.857905-289.645715l-38.765714-40.764952a59.587048 59.587048 0 0 1-16.335238-41.398857c0-1.950476 0.390095-3.803429 0.536381-5.705143a33.596952 33.596952 0 0 0-21.504 31.646476v69.778286a295.545905 295.545905 0 0 0-53.638096 23.454476l-46.908952-49.347048a31.256381 31.256381 0 0 0-45.738667 0l-82.895238 86.991239a35.303619 35.303619 0 0 0 0 48.030476l47.006476 49.395809a333.336381 333.336381 0 0 0-22.332952 56.368762H32.29501a33.158095 33.158095 0 0 0-32.280381 34.133333V543.695238a33.158095 33.158095 0 0 0 32.280381 34.133333h66.364952a327.533714 327.533714 0 0 0 22.28419 56.368762l-46.957714 49.39581a35.206095 35.206095 0 0 0 0 48.030476l82.895238 86.991238a31.256381 31.256381 0 0 0 45.738667 0L249.626819 769.219048a298.471619 298.471619 0 0 0 53.638095 23.454476V861.866667A33.158095 33.158095 0 0 0 335.594057 896h117.028572a33.158095 33.158095 0 0 0 32.329142-34.133333v-69.778286a299.983238 299.983238 0 0 0 53.638096-23.454476L585.25501 817.980952a31.256381 31.256381 0 0 0 45.689904 0l82.895238-86.991238a35.254857 35.254857 0 0 0 0-48.079238l-47.006476-49.395809a326.168381 326.168381 0 0 0 22.332953-56.368762h66.413714a30.427429 30.427429 0 0 0 17.017905-5.802667l-70.509715-74.166857z m14.628571 538.721524a215.088762 215.088762 0 1 1 204.361143-214.844952 210.017524 210.017524 0 0 1-204.263619 214.844952z m0-375.759238a160.914286 160.914286 0 1 0 153.112381 160.914286 157.305905 157.305905 0 0 0-153.014857-160.914286z m-78.311619-295.350857a12.385524 12.385524 0 0 0 11.946667 9.362286 12.336762 12.336762 0 0 0 8.874667-3.852191l90.989714-95.573333a13.653333 13.653333 0 0 0 3.267048-12.483048 12.921905 12.921905 0 0 0-8.533334-9.411047l-130.048-41.106286a11.654095 11.654095 0 0 0-3.608381-0.585143 12.434286 12.434286 0 0 0-8.874666 3.85219 13.653333 13.653333 0 0 0-3.120762 13.116953z"  horiz-adv-x="1024" />

    
    <glyph glyph-name="icon-check" unicode="&#59648;" d="M896 896C448 896 0 497.749333 0 384c0-113.749333 448-512 896-512S1792 270.250667 1792 384c0 113.749333-448 512-896 512z m0-853.333333a341.333333 341.333333 0 1 0 335.957333 341.333333 338.688 338.688 0 0 0-335.957333-341.333333zM783.957333 384A112.042667 112.042667 0 1 1 896 497.749333 112.981333 112.981333 0 0 1 783.957333 384z"  horiz-adv-x="1792" />

    
    <glyph glyph-name="close" unicode="&#59652;" d="M877.00917-128l-365.189748 365.671291-364.828592-365.370327-145.90736 146.148131 364.828592 365.370327L1.384435 748.828592 147.351987 895.036915l364.467435-365.069363L876.648013 895.277686l145.967552-146.087938-364.828591-365.370326 365.129556-365.671291z"  horiz-adv-x="1024" />

    
    <glyph glyph-name="icon-reload-copy" unicode="&#59650;" d="M142.51722 51.06228199999998L1.391382-80.40907300000003V341.378293h463.017691l-172.360934-166.39787c358.522101-309.113859 730.730852 58.324441 730.730853 58.324441-401.228995-687.115301-880.261771-182.242582-880.261772-182.242582z m590.229716 540.878265C374.224835 901.167988 1.959292 533.6728969999999 1.959292 533.6728969999999c401.285786 687.172093 880.261771 182.242582 880.261772 182.242582L1021.188841 847.330043v-463.244856H560.27242z"  horiz-adv-x="1024" />

    
    <glyph glyph-name="arr-right" unicode="&#59657;" d="M822.292825 352.318318l-554.85366-466.077074a49.751878 49.751878 0 0 0-65.93511 0 40.319366 40.319366 0 0 0 0 60.479049l521.654916 437.964489L201.504055 822.556795a40.319366 40.319366 0 0 0 0 60.479049 49.566927 49.566927 0 0 0 65.93511 0l554.85366-465.984599a46.237805 46.237805 0 0 0 0-64.732927z"  horiz-adv-x="1024" />

    
    <glyph glyph-name="arr-down" unicode="&#59658;" d="M480.318318 73.707175l-466.077074 554.85366a49.751878 49.751878 0 0 0 0 65.93511 40.319366 40.319366 0 0 0 60.479049 1e-8l437.964489-521.65491601L950.556795 694.495945a40.319366 40.319366 0 0 0 60.479049 0 49.566927 49.566927 0 0 0 0-65.93511l-465.98459899-554.85366a46.237805 46.237805 0 0 0-64.73292701 0z"  horiz-adv-x="1024" />

    
    <glyph glyph-name="arr-left" unicode="&#59656;" d="M201.707175 415.681682l554.85366 466.077074a49.751878 49.751878 0 0 0 65.93511 0 40.319366 40.319366 0 0 0 1e-8-60.479049l-521.65491601-437.964489L822.495945-54.556794999999966a40.319366 40.319366 0 0 0 0-60.479049 49.566927 49.566927 0 0 0-65.93511 0l-554.85366 465.98459899a46.237805 46.237805 0 0 0 0 64.73292701z"  horiz-adv-x="1024" />

    
    <glyph glyph-name="arr-up" unicode="&#59671;" d="M543.681682 694.292825l466.077074-554.85366a49.751878 49.751878 0 0 0 0-65.93511 40.319366 40.319366 0 0 0-60.479049-1e-8l-437.964489 521.65491601L73.443205 73.504055a40.319366 40.319366 0 0 0-60.479049 0 49.566927 49.566927 0 0 0 0 65.93511l465.98459899 554.85366a46.237805 46.237805 0 0 0 64.73292701 0z"  horiz-adv-x="1024" />

    
    <glyph glyph-name="tick" unicode="&#59659;" d="M422.103171-127.58461199999999a5927.029139 5927.029139 0 0 0 339.233317 553.227233 3215.516463 3215.516463 0 0 0 315.071598 371.425867l-36.484889 98.862281A2762.328443 2762.328443 0 0 1 664.620377 583.4207289999999a2671.843148 2671.843148 0 0 1-301.363802-381.464404L105.923873 436.719627 0.623082 327.541884z"  horiz-adv-x="1077" />

    
    <glyph glyph-name="dot" unicode="&#59660;" d="M512 384m-251.74102802 0a251.74102802 251.74102802 0 1 1 503.48205604 0 251.74102802 251.74102802 0 1 1-503.48205605 0Z"  horiz-adv-x="1024" />

    
    <glyph glyph-name="close1" unicode="&#59663;" d="M997.224752 741.746881L639.990116 384.000284l357.234636-357.689711a90.218811 90.218811 0 1 0-127.421271-127.819463L512 256.237706l-357.803481-357.746596A90.275695 90.275695 0 0 0 0.039535-37.62760100000003a91.754692 91.754692 0 0 0 26.166868 63.938174L384.009884 384.000284 26.206403 741.746881A91.527154 91.527154 0 0 0 0.039535 805.62817 90.275695 90.275695 0 0 0 154.196519 869.509459L512 511.762863 869.803481 869.509459a90.218811 90.218811 0 1 0 127.421271-127.762578z"  horiz-adv-x="1024" />

    
    <glyph glyph-name="pen" unicode="&#59661;" d="M913.221818 670.440727L807.098182 569.995636l-207.592727 203.869091L698.181818 877.847273a50.362182 50.362182 0 0 0 80.058182-7.168L912.290909 743.982545a46.545455 46.545455 0 0 0 0.930909-73.541818zM341.643636 104.26181799999995L120.087273 299.19418199999996l437.527272 440.226909 218.763637-209.547636z m-166.632727-98.676363L46.545455 115.15345500000001l44.683636 148.945454 221.556364-187.019636zM0-34.90909099999999l26.996364 93.835636 83.781818-78.289454z m279.272727 0h744.727273v-93.090909H279.272727v93.090909z"  horiz-adv-x="1024" />

    
    <glyph glyph-name="calendar" unicode="&#59664;" d="M921.534295-127.99366999999995H100.586445A73.963214 73.963214 0 0 0 26.087619-54.95560499999999V711.944076a73.914522 73.914522 0 0 0 74.498826 73.038065h37.492874V675.4250440000001A73.963214 73.963214 0 0 1 212.578145 602.386979h74.498826A74.060598 74.060598 0 0 1 362.062718 675.4250440000001V784.982141h298.482225V675.4250440000001A73.963214 73.963214 0 0 1 735.043769 602.386979h74.985747a73.963214 73.963214 0 0 1 74.498826 73.038065V784.982141h37.005953a74.011906 74.011906 0 0 0 74.985746-73.038065V-54.95560499999999a74.060598 74.060598 0 0 0-74.985746-73.038065z m0 657.342584H100.586445v-584.304519h820.94785v584.304519z m-297.021464-213.709378a331.105894 331.105894 0 0 1-62.325816-55.99585 244.580133 244.580133 0 0 1-29.702146-75.08313 487.553429 487.553429 0 0 1-15.581454-94.559948H435.587703a516.135659 516.135659 0 0 0 30.189067 124.943783 416.07351 416.07351 0 0 0 65.247338 96.264169H397.607909v73.038065h226.904922v-68.753165z m148.023811 323.266476a73.622369 73.622369 0 0 0-74.498826 73.038064V821.501174a74.498826 74.498826 0 0 0 148.997653 0v-109.557098a73.622369 73.622369 0 0 0-74.498827-73.038064z m-522.465624 0a73.622369 73.622369 0 0 0-74.498826 73.038064V821.501174a74.498826 74.498826 0 0 0 148.997652 0v-109.557098a73.963214 73.963214 0 0 0-74.498826-73.038064z"  horiz-adv-x="1024" />

    
    <glyph glyph-name="minus" unicode="&#59662;" d="M1516.59311681 515.37270355v-247.55291088H526.38147319V515.37270355h990.21164362z"  horiz-adv-x="4096" />

    
    <glyph glyph-name="plus" unicode="&#59672;" d="M1024 237.65333299999998H658.090667V-128H365.909333V237.65333299999998H0V530.688h365.653333V896H657.92v-365.312H1024v-293.034667z"  horiz-adv-x="1024" />

    
    <glyph glyph-name="time" unicode="&#59670;" d="M512-128a512 512 0 1 0 512 512 512 512 0 0 0-512-512z m0 917.3504A405.3504 405.3504 0 1 1 917.3504 384 405.3504 405.3504 0 0 1 512 789.2992z m289.536-434.2784v57.856h57.9072v-57.9072h-57.9072z m-81.152-208.2304l-40.96 40.96 40.96 40.96 40.96-40.96z m-32.4608 460.8l40.0384 40.1408 40.0384-40.0896-40.0896-40.1408z m-204.8-513.2288h57.856v-57.9072h-57.856v57.9584zM512 354.35519999999997H251.4432a28.9792 28.9792 0 1 0 0 57.9072h231.6288V702.4639999999999a28.928 28.928 0 1 0 57.856 0v-319.1808a28.928 28.928 0 0 0-28.928-28.928z m-264.4992 251.904l40.96 40.96 40.96-40.96-40.96-40.96z m76.3392-419.84l-40.0896-40.1408-40.0384 40.1408 40.0384 40.1408z"  horiz-adv-x="1024" />

    
    <glyph glyph-name="filter" unicode="&#59666;" d="M590.0288 414.583467V69.97333300000003L396.356267-128V414.242133l-13.1072 61.986134L112.8448 896h799.1296L603.067733 476.842667z"  horiz-adv-x="1024" />

    
    <glyph glyph-name="plus-child" unicode="&#59667;" d="M853.333333 338.94399999999996H548.437333V42.66666699999996H304.896V338.94399999999996H0V586.922667h304.725333V896h243.541334v-309.077333H853.333333v-247.978667z m512.853334-178.005333h-192.682667V810.666667h-128v-649.472h-192.853333L1109.333333-128z"  horiz-adv-x="1366" />

    
    <glyph glyph-name="arr-down1" unicode="&#59668;" d="M788.48 187.07692299999997H581.316923V896H442.683077v-708.923077H235.52l276.48-315.076923z"  horiz-adv-x="1024" />

    
    <glyph glyph-name="arr-up1" unicode="&#59669;" d="M788.48 580.9230769999999H581.316923v-708.923077H442.683077V580.9230769999999H235.52L512 896z"  horiz-adv-x="1024" />

    
    <glyph glyph-name="arr-right1" unicode="&#59688;" d="M1011.082554 351.954937L510.381357-114.60331199999996a41.585551 41.585551 0 0 0-59.540833 0 43.260137 43.260137 0 0 0 0 60.564191l470.55865 438.462419L450.840524 822.885717a43.260137 43.260137 0 0 0 0 60.564192 41.585551 41.585551 0 0 0 59.540833 0l500.701197-466.55825a50.051513 50.051513 0 0 0 0-64.936722z m-437.904224 0L72.384101-114.60331199999996a41.585551 41.585551 0 0 0-59.540833 0 43.446202 43.446202 0 0 0 0 60.564191l470.651682 438.462419L12.843268 822.885717a43.446202 43.446202 0 0 0 0 60.564192 41.585551 41.585551 0 0 0 59.540833 0l500.794229-466.55825a50.051513 50.051513 0 0 0 0-64.936722z"  horiz-adv-x="1024" />

    
    <glyph glyph-name="icon-test" unicode="&#59684;" d="M511.819797 895.928865a376.603984 376.603984 0 0 1-383.819797-368.467004c0-203.629196 383.819797-655.052453 383.819797-655.052453s383.819797 451.320905 383.819796 655.052453a376.603984 376.603984 0 0 1-383.819796 368.467004z m0-73.744577a296.360059 296.360059 0 0 0 302.296471-290.270118 281.467851 281.467851 0 0 0-70.213434-185.512901 275.429086 275.429086 0 0 1-170.313638 122.822335 175.226531 175.226531 0 0 1 76.763959 138.993942 138.482183 138.482183 0 0 1-276.708485 0A175.021827 175.021827 0 0 1 450.408629 469.223604a275.63379 275.63379 0 0 1-170.262462-122.822335 281.467851 281.467851 0 0 0-70.213434 185.512901A296.411235 296.411235 0 0 0 511.819797 822.184288zM441.708714 263.137961L500.816962 430.841624h-0.665287l-22.926836 25.28093a101.123722 101.123722 0 0 1 69.292267 0l-22.87566-25.28093h-0.614111l59.108248-167.652487L511.819797 165.23832500000003z"  horiz-adv-x="1024" />

    
    <glyph glyph-name="arr-left1" unicode="&#59687;" d="M12.136096 351.954937l500.701197-466.558249a41.585551 41.585551 0 0 1 59.540833 0 43.260137 43.260137 0 0 1 0 60.564191L101.819477 384.423298 572.378126 822.885717a43.260137 43.260137 0 0 1 0 60.564192 41.585551 41.585551 0 0 1-59.540833 0L12.136096 416.891659a50.051513 50.051513 0 0 1 0-64.936722z m437.904224 0l500.794229-466.558249a41.585551 41.585551 0 0 1 59.540834 0 43.446202 43.446202 0 0 1 0 60.564191L539.909766 384.330266 1010.561448 822.792685a43.446202 43.446202 0 0 1 0 60.564191 41.585551 41.585551 0 0 1-59.540834 0L450.226385 416.798626a50.051513 50.051513 0 0 1-0.186065-64.843689z"  horiz-adv-x="1024" />

    
    <glyph glyph-name="home" unicode="&#59680;" d="M0 337.43811800000003L546.153412 896l234.435764-243.109647V753.242353H922.081882v-233.170824h-13.673411L1084.717176 337.43811800000003H0.481882zM922.081882-127.21694100000002h-283.105882v277.443765H450.258824v-277.443765h-283.105883V335.149176H922.081882v-462.366117z"  horiz-adv-x="1084" />

    
    <glyph glyph-name="icon-test1" unicode="&#59685;" d="M1090.555568 284.64449L1017.173793 170.783281v-288.134391a10.512366 10.512366 0 0 0-10.375842-10.580628H778.256387a10.512366 10.512366 0 0 0-10.375841 10.580628v288.134391l-73.313513 113.861209a10.785414 10.785414 0 0 0-1.706552 5.80228v208.199454a105.669755 105.669755 0 0 0 71.265648 100.550096s35.428038 10.921939 36.45197 10.921939a10.375842 10.375842 0 0 0 9.761483-6.826212l70.309979-196.79968a12.628491 12.628491 0 0 1 23.823479 0l70.309979 196.79968a10.307579 10.307579 0 0 0 12.833278 6.484901l33.448437-10.444104A105.055396 105.055396 0 0 0 1092.26212 499.192321v-208.745551a10.921939 10.921939 0 0 0-1.706552-5.80228z m-228.473302 333.665223a16.929005 16.929005 0 0 0 12.765015 5.392707h35.632825a16.929005 16.929005 0 0 0 12.765016-5.392707 17.133791 17.133791 0 0 0 2.184387-19.864276l-19.04513-29.284448 8.942337-76.726618-17.543364-47.783481a5.324445 5.324445 0 0 0-10.102793 0l-17.543364 47.783481 8.942338 76.726618-19.045131 29.284448a17.133791 17.133791 0 0 0 2.047864 19.864276z m30.581428 38.704619a119.526965 119.526965 0 1 0 117.13779 119.526965 118.434771 118.434771 0 0 0-117.206052-119.458703zM606.577166 355.77361499999995h-58.159323V-100.626892a26.827012 26.827012 0 0 0-26.553963-27.304846H408.685292a26.827012 26.827012 0 0 0-26.553963 27.304846V355.97840099999996h-58.09106A26.417439 26.417439 0 0 0 300.421576 370.381708a27.304846 27.304846 0 0 0 2.25265 28.260516L443.77202 595.64669a26.280915 26.280915 0 0 0 42.868609 0l141.234317-196.594893a27.304846 27.304846 0 0 0 2.25265-28.260516 26.485701 26.485701 0 0 0-23.618692-15.017666z m-273.799347-145.876141a26.485701 26.485701 0 0 0-23.686954-14.881142h-58.09106V-100.626892a26.827012 26.827012 0 0 0-26.553964-27.304846H111.267253a26.827012 26.827012 0 0 0-26.553963 27.304846v295.848011H26.62223a26.417439 26.417439 0 0 0-23.686954 14.881141 27.304846 27.304846 0 0 0 2.252649 28.260516l141.234318 196.594893a26.280915 26.280915 0 0 0 42.868609 0l141.234318-196.594893a27.304846 27.304846 0 0 0 2.184387-28.465302z"  horiz-adv-x="1092" />

    
    <glyph glyph-name="Cogwheel" unicode="&#59686;" d="M970.495393 456.959634l-84.799947 14.079992a381.311762 381.311762 0 0 1-48.767969 116.927927l47.23197 66.111958a63.42396 63.42396 0 0 1-6.783995 81.663949L863.99946 749.439452a63.48796 63.48796 0 0 1-81.663949 6.783995l-66.111959-47.23197a381.759761 381.759761 0 0 1-116.863927 48.767969L585.215634 842.559393A63.99996 63.99996 0 0 1 521.791674 895.99936h-19.583988a63.99996 63.99996 0 0 1-63.10396-53.439967L424.959734 757.759446a381.759761 381.759761 0 0 1-116.863927-48.767969l-66.111958 47.23197a63.42396 63.42396 0 0 1-81.663949-6.783995l-13.695992-13.695992a63.35996 63.35996 0 0 1-6.719995-81.663949l47.23197-66.111958a381.311762 381.311762 0 0 1-48.767969-116.927927l-84.799947-14.079992a63.99996 63.99996 0 0 1-53.439967-63.16796v-19.583988a63.99996 63.99996 0 0 1 53.439967-63.10396l84.799947-14.143992a380.991762 380.991762 0 0 1 48.767969-116.863927l-47.23197-66.175958a63.42396 63.42396 0 0 1 6.719995-81.663949l13.375992-13.695992a63.35996 63.35996 0 0 1 81.663949-6.719995l66.111959 47.23197a381.759761 381.759761 0 0 1 116.863927-48.767969l14.143991-84.799947a63.99996 63.99996 0 0 1 63.10396-53.503967h19.583988a63.99996 63.99996 0 0 1 63.167961 53.503967l14.143991 84.799947a381.759761 381.759761 0 0 1 116.863927 48.767969l66.111958-47.23197a63.35996 63.35996 0 0 1 81.663949 6.719995l13.695992 13.695992a63.42396 63.42396 0 0 1 6.783996 81.663949l-47.231971 66.175958a380.927762 380.927762 0 0 1 48.76797 116.863927l84.799947 14.143992a63.99996 63.99996 0 0 1 53.759966 63.10396v19.583988a63.99996 63.99996 0 0 1-53.503967 63.16796zM511.99968 191.99980000000005a191.99988 191.99988 0 1 0 191.99988 191.99988 191.99988 191.99988 0 0 0-191.99988-191.99988z"  horiz-adv-x="1024" />

    
    <glyph glyph-name="Clock" unicode="&#59681;" d="M512 896a512 512 0 1 1 512-512 512 512 0 0 1-512 512z m0-896a384 384 0 1 0 384 384 384.448 384.448 0 0 0-384-384z m128.64 384H544a32 32 0 0 0-32 32V512.64A63.36 63.36 0 0 1 448.64 576h-1.28a63.36 63.36 0 0 1-63.36-63.36v-193.28a63.36 63.36 0 0 1 63.36-63.36h193.28a63.36 63.36 0 0 1 63.36 63.36v1.28a63.36 63.36 0 0 1-63.36 63.36z"  horiz-adv-x="1024" />

    
    <glyph glyph-name="icon-test2" unicode="&#59683;" d="M769.876145 681.755095h176.013929A20.991965 20.991965 0 0 1 967.109594 702.576393V875.233883A20.991965 20.991965 0 0 1 945.890074 895.998293h-176.013929a20.935076 20.935076 0 0 1-21.21952-20.76441v-52.053246H508.472136a34.645276 34.645276 0 0 1-34.929719-34.133277V418.132423H349.695512V499.597176a28.103064 28.103064 0 0 1-28.444397 27.818621H85.333286a28.103064 28.103064 0 0 1-28.444397-27.818621v-231.537392a28.103064 28.103064 0 0 1 28.444397-27.81862h236.031607a28.103064 28.103064 0 0 1 28.444397 27.81862V349.86587h123.790015v-370.630493a34.645276 34.645276 0 0 1 34.92972-34.133277h240.241377v-52.053246a20.991965 20.991965 0 0 1 21.162632-20.76441h176.013929a20.991965 20.991965 0 0 1 21.162631 20.479966V65.42190000000005a20.991965 20.991965 0 0 1-21.162631 20.76441h-176.070818a20.991965 20.991965 0 0 1-21.162631-20.76441v-52.110136H543.401856V349.86587h205.311658v-52.110135a20.991965 20.991965 0 0 1 21.162631-20.76441h176.013929a20.991965 20.991965 0 0 1 21.21952 20.650632V470.356336a20.991965 20.991965 0 0 1-21.162631 20.76441h-176.070818a20.991965 20.991965 0 0 1-21.162631-20.76441V418.132423H543.401856V754.458974h205.311658V702.576393a20.991965 20.991965 0 0 1 21.162631-20.821298z"  horiz-adv-x="1024" />

    
    <glyph glyph-name="icon-test3" unicode="&#59682;" d="M973.66713 226.94885999999997l-38.63199-62.18354v-163.231793a23.272283 23.272283 0 0 0-22.806838-24.063541h-129.021536a23.272283 23.272283 0 0 0-22.760293 24.063541V164.76531999999997l-38.678535 62.18354a24.901343 24.901343 0 0 0-3.770109 13.218657v121.807129a79.498119 79.498119 0 0 0 51.664468 75.774553l19.409084 6.283517a21.829401 21.829401 0 0 0 20.339975-3.723566l38.306178-30.347057 38.306178 30.347057a21.829401 21.829401 0 0 0 20.339975 3.723566l19.36254-6.283517A79.544663 79.544663 0 0 0 977.437239 361.974646v-121.807129a24.994432 24.994432 0 0 0-3.770109-13.218657z m-125.949596 237.377287a80.708277 80.708277 0 1 0 76.239999 80.568643 78.613772 78.613772 0 0 0-76.239999-80.42901z m-1.861783 218.200925a23.272283 23.272283 0 0 0-14.801172-5.306081 23.923907 23.923907 0 0 0-19.409084 10.146716 364.583585 364.583585 0 0 1-599.307831 0 23.55155 23.55155 0 0 0-34.210256-4.654457 26.80967 26.80967 0 0 0-4.654457 36.165128 411.919409 411.919409 0 0 0 676.897623 0 26.80967 26.80967 0 0 0-4.514823-36.211673zM252.505624 545.034424a76.379633 76.379633 0 1 0-76.239999 80.568644A78.613772 78.613772 0 0 0 252.505624 545.034424zM137.959448 440.30915l38.306177-30.347057 38.306178 30.347057a21.829401 21.829401 0 0 0 20.339975 3.723566l19.36254-6.283517a79.544663 79.544663 0 0 0 51.664468-75.774553v-121.807129a24.947887 24.947887 0 0 0-3.77011-13.218657l-38.678534-62.18354v-163.231793a23.272283 23.272283 0 0 0-22.760293-24.063541H111.708312a23.272283 23.272283 0 0 0-22.806837 24.063541V164.76531999999997l-38.63199 62.18354A24.994432 24.994432 0 0 0 46.54592 240.16751699999998v121.807129a79.498119 79.498119 0 0 0 51.664468 75.774553l19.409084 6.283517a21.829401 21.829401 0 0 0 20.339976-3.723566zM413.689456 658.603165A98.488302 98.488302 0 1 0 511.99158 554.6691490000001 101.374065 101.374065 0 0 0 413.642912 658.603165z m75.262564-150.66476a12.706667 12.706667 0 0 0 9.58818 4.189011h26.902759a12.660122 12.660122 0 0 0 9.588181-4.189011 13.96337 13.96337 0 0 0 1.62906-15.545885l-14.382271-22.899927 6.748962-59.995945-13.265201-37.235653a3.956288 3.956288 0 0 0-7.586765 0l-13.265201 37.235653 6.748962 59.995945-14.382271 22.899927a13.96337 13.96337 0 0 0 1.442882 15.545885z m-84.757655-3.537387s29.741978 9.308913 30.57978 9.308913a8.750378 8.750378 0 0 0 8.191843-6.097338l59.01851-171.097825a10.472527 10.472527 0 0 1 20.014163 0l59.01851 171.097825a8.610745 8.610745 0 0 0 10.751795 5.678437l27.926739-9.308913a91.13426 91.13426 0 0 0 59.623589-86.898705v-181.523807a9.867448 9.867448 0 0 0-1.442881-5.073358l-61.578461-99.000292V-118.69108700000004a8.983101 8.983101 0 0 0-8.703834-9.308913H416.109774a8.983101 8.983101 0 0 0-8.703834 9.308913v250.595943L345.827479 230.90514800000005a9.820903 9.820903 0 0 0-1.442881 5.073358v181.011817a91.832429 91.832429 0 0 0 59.809767 87.410695z"  horiz-adv-x="1024" />

    


  </font>
</defs>
</svg>
