<svg xmlns="http://www.w3.org/2000/svg" width="21" height="21" viewBox="0 0 21 21">
  <metadata><?xpacket begin="﻿" id="W5M0MpCehiHzreSzNTczkc9d"?>
<x:xmpmeta xmlns:x="adobe:ns:meta/" x:xmptk="Adobe XMP Core 5.6-c142 79.160924, 2017/07/13-01:06:39        ">
   <rdf:RDF xmlns:rdf="http://www.w3.org/1999/02/22-rdf-syntax-ns#">
      <rdf:Description rdf:about=""/>
   </rdf:RDF>
</x:xmpmeta>
                                                                                                    
                                                                                                    
                                                                                                    
                                                                                                    
                                                                                                    
                                                                                                    
                                                                                                    
                                                                                                    
                                                                                                    
                                                                                                    
                                                                                                    
                                                                                                    
                                                                                                    
                                                                                                    
                                                                                                    
                                                                                                    
                                                                                                    
                                                                                                    
                                                                                                    
                                                                                                    
                           
<?xpacket end="w"?></metadata>
<defs>
    <style>
      .cls-1 {
        fill: #778a9b;
        fill-rule: evenodd;
      }
    </style>
  </defs>
  <path id="形状_5_拷贝" data-name="形状 5 拷贝" class="cls-1" d="M547.487,387.009a0.237,0.237,0,0,1-.347,0l-2.129-2.236a0.27,0.27,0,0,1-.071-0.182,0.265,0.265,0,0,1,.071-0.182,1.692,1.692,0,0,1,2.476,0A1.906,1.906,0,0,1,547.487,387.009Zm-1.129,1.185-0.192.2a1.575,1.575,0,0,1,.135.9,1.525,1.525,0,0,1-.4.832l-3.271,3.439a0.7,0.7,0,0,1-1.018,0l-0.184-.193-4.484,4.713a0.426,0.426,0,0,1-.624,0l-1.848-1.941a0.481,0.481,0,0,1,0-.656l9.413-9.895a0.426,0.426,0,0,1,.624,0l1.847,1.942A0.479,0.479,0,0,1,546.358,388.194Zm-11.584,5.94-0.795.836a1.222,1.222,0,0,0-.335.849c0,0.04.008,0.078,0.011,0.117a0.689,0.689,0,0,1-.441-0.649v-1.431a6.061,6.061,0,0,1-1.1-.481l-0.962,1.012a0.641,0.641,0,0,1-.938,0l-1.7-1.784a0.724,0.724,0,0,1,0-.985l0.964-1.013a6.836,6.836,0,0,1-.458-1.156h-1.36a0.68,0.68,0,0,1-.662-0.7v-2.524a0.68,0.68,0,0,1,.662-0.7h1.361a6.717,6.717,0,0,1,.457-1.156l-0.963-1.013a0.722,0.722,0,0,1,0-.985l1.7-1.784a0.641,0.641,0,0,1,.938,0l0.964,1.013a6.121,6.121,0,0,1,1.1-.481V379.7a0.68,0.68,0,0,1,.663-0.7h2.4a0.68,0.68,0,0,1,.663.7v1.431a6.152,6.152,0,0,1,1.1.481L539,380.6a0.641,0.641,0,0,1,.937,0l1.7,1.784a0.723,0.723,0,0,1,0,.986l-0.964,1.013a6.689,6.689,0,0,1,.458,1.156h1.362a0.624,0.624,0,0,1,.349.119l-1.446,1.521Zm0.3-11.048a4.411,4.411,0,1,0,4.191,4.406A4.307,4.307,0,0,0,535.076,383.086Zm0,7.706a3.3,3.3,0,1,1,3.14-3.3A3.226,3.226,0,0,1,535.076,390.792Zm-1.606,6.057a0.254,0.254,0,0,1,.245-0.192,0.253,0.253,0,0,1,.182.079l1.866,1.96a0.28,0.28,0,0,1,.067.256,0.265,0.265,0,0,1-.175.193l-2.667.843a0.239,0.239,0,0,1-.074.012,0.255,0.255,0,0,1-.182-0.079,0.28,0.28,0,0,1-.064-0.269Z" transform="translate(-527 -379)"/>
</svg>
