<svg xmlns="http://www.w3.org/2000/svg" width="17" height="18" viewBox="0 0 17 18">
  <metadata><?xpacket begin="﻿" id="W5M0MpCehiHzreSzNTczkc9d"?>
<x:xmpmeta xmlns:x="adobe:ns:meta/" x:xmptk="Adobe XMP Core 5.6-c142 79.160924, 2017/07/13-01:06:39        ">
   <rdf:RDF xmlns:rdf="http://www.w3.org/1999/02/22-rdf-syntax-ns#">
      <rdf:Description rdf:about=""/>
   </rdf:RDF>
</x:xmpmeta>
                                                                                                    
                                                                                                    
                                                                                                    
                                                                                                    
                                                                                                    
                                                                                                    
                                                                                                    
                                                                                                    
                                                                                                    
                                                                                                    
                                                                                                    
                                                                                                    
                                                                                                    
                                                                                                    
                                                                                                    
                                                                                                    
                                                                                                    
                                                                                                    
                                                                                                    
                                                                                                    
                           
<?xpacket end="w"?></metadata>
<defs>
    <style>
      .cls-1 {
        fill: #778a9b;
        fill-rule: evenodd;
      }
    </style>
  </defs>
  <path id="形状_6_拷贝" data-name="形状 6 拷贝" class="cls-1" d="M669.415,383.436l0.018,0.048h-15.3l0.019-.048a0.871,0.871,0,0,1,.265-1.694,0.825,0.825,0,0,1,.363.086l0.486-1.247h3.967A0.574,0.574,0,0,1,659.8,380h3.4a0.574,0.574,0,0,1,.567.581H668.3l0.487,1.247a0.819,0.819,0,0,1,.363-0.086A0.871,0.871,0,0,1,669.415,383.436Zm-0.549.628a1.162,1.162,0,0,1,0,2.323H668.3V398H654.7V386.387h-0.567a1.162,1.162,0,0,1,0-2.323h14.733ZM664.333,395.1a1.134,1.134,0,1,0,2.267,0v-6.968a1.134,1.134,0,1,0-2.267,0V395.1Zm-3.966,0a1.133,1.133,0,1,0,2.266,0v-6.968a1.133,1.133,0,1,0-2.266,0V395.1Zm-3.967,0a1.134,1.134,0,1,0,2.267,0v-6.968a1.134,1.134,0,1,0-2.267,0V395.1Z" transform="translate(-653 -380)"/>
</svg>
